<svg width="29" height="29" viewBox="0 0 29 29" fill="none" xmlns="http://www.w3.org/2000/svg">
<g id="Frame">
<path id="Vector" d="M14.4999 0C13.2244 0 12.1799 1.04445 12.1799 2.32C12.1799 2.61906 12.2389 2.90906 12.3431 3.17188C9.08057 4.01922 6.95995 6.85352 6.95995 10.44C6.95995 14.9826 5.84526 17.0511 4.78495 18.2156C4.25479 18.7979 3.73143 19.1513 3.28057 19.4844C3.05401 19.6498 2.84784 19.8152 2.66432 20.0281C2.48081 20.2411 2.31995 20.5447 2.31995 20.88C2.31995 21.6775 2.80932 22.3549 3.49807 22.8012C4.18682 23.2476 5.09081 23.5353 6.18057 23.7619C7.59432 24.0541 9.33885 24.2082 11.2556 24.2875C11.1106 24.6727 11.0199 25.0873 11.0199 25.52C11.0199 27.4345 12.5855 29 14.4999 29C16.4144 29 17.9799 27.4345 17.9799 25.52C17.9799 25.085 17.8916 24.6704 17.7443 24.2875C19.661 24.2082 21.4056 24.0541 22.8193 23.7619C23.9091 23.5353 24.8131 23.2476 25.5018 22.8012C26.1906 22.3549 26.6799 21.6775 26.6799 20.88C26.6799 20.5447 26.5191 20.2411 26.3356 20.0281C26.1521 19.8152 25.9459 19.6498 25.7193 19.4844C25.2685 19.1513 24.7451 18.7979 24.2149 18.2156C23.1546 17.0511 22.0399 14.9826 22.0399 10.44C22.0399 6.85578 19.9148 4.02375 16.6568 3.17188C16.761 2.90906 16.8199 2.61906 16.8199 2.32C16.8199 1.04445 15.7755 0 14.4999 0ZM14.4999 1.16C15.1479 1.16 15.6599 1.67203 15.6599 2.32C15.6599 2.96797 15.1479 3.48 14.4999 3.48C13.852 3.48 13.3399 2.96797 13.3399 2.32C13.3399 1.67203 13.852 1.16 14.4999 1.16ZM15.8593 4.16875C18.9519 4.7193 20.8799 7.10953 20.8799 10.44C20.8799 15.1774 22.0853 17.6107 23.3449 18.995C23.9748 19.686 24.6114 20.1187 25.0306 20.4269C25.239 20.5809 25.3953 20.7101 25.4656 20.7894C25.5358 20.8687 25.5199 20.8619 25.5199 20.88C25.5199 21.2425 25.3523 21.5076 24.8674 21.8225C24.3826 22.1374 23.5942 22.4297 22.5837 22.6381C20.5628 23.0573 17.6854 23.2 14.4999 23.2C11.3145 23.2 8.43713 23.0573 6.4162 22.6381C5.40573 22.4297 4.61729 22.1374 4.13245 21.8225C3.6476 21.5076 3.47995 21.2425 3.47995 20.88C3.47995 20.8619 3.46409 20.8687 3.53432 20.7894C3.60456 20.7101 3.76088 20.5809 3.96932 20.4269C4.38846 20.1187 5.0251 19.686 5.65495 18.995C6.91463 17.6107 8.11995 15.1774 8.11995 10.44C8.11995 7.1118 10.0503 4.73969 13.1406 4.18687C13.5257 4.47008 13.9902 4.64 14.4999 4.64C15.0142 4.64 15.4742 4.45648 15.8593 4.16875ZM12.5062 24.3237C13.1564 24.3373 13.818 24.36 14.4999 24.36C15.1819 24.36 15.8435 24.3373 16.4937 24.3237C16.6999 24.6727 16.8199 25.085 16.8199 25.52C16.8199 26.8091 15.7891 27.84 14.4999 27.84C13.2108 27.84 12.1799 26.8091 12.1799 25.52C12.1799 25.0805 12.2955 24.6727 12.5062 24.3237Z" fill="black"/>
</g>
</svg>
